<svg width="26" height="26" viewBox="0 0 26 26" fill="none" xmlns="http://www.w3.org/2000/svg">
<path d="M11.9167 7.58342H14.0833V9.75008H11.9167V7.58342ZM11.9167 11.9167H14.0833V18.4167H11.9167V11.9167ZM13 2.16675C7.01999 2.16675 2.16666 7.02008 2.16666 13.0001C2.16666 18.9801 7.01999 23.8334 13 23.8334C18.98 23.8334 23.8333 18.9801 23.8333 13.0001C23.8333 7.02008 18.98 2.16675 13 2.16675ZM13 21.6667C8.22249 21.6667 4.33332 17.7776 4.33332 13.0001C4.33332 8.22258 8.22249 4.33341 13 4.33341C17.7775 4.33341 21.6667 8.22258 21.6667 13.0001C21.6667 17.7776 17.7775 21.6667 13 21.6667Z" fill="black"/>
</svg>
