<svg width="50" height="36" viewBox="0 0 50 36" fill="none" xmlns="http://www.w3.org/2000/svg">
<path d="M18.2051 36C8.16666 36 0 27.9264 0 18.0006C0 8.07492 8.16666 0 18.2051 0C28.2436 0 36.409 8.07492 36.409 18.0006C36.409 27.9264 28.2423 36 18.2051 36ZM18.2051 8.51109C16.307 8.51109 14.4514 9.06764 12.8731 10.1104C11.2949 11.1531 10.0647 12.6352 9.33834 14.3692C8.61194 16.1031 8.42188 18.0112 8.79219 19.852C9.16251 21.6928 10.0766 23.3836 11.4188 24.7108C12.761 26.0379 14.4711 26.9417 16.3328 27.3079C18.1945 27.674 20.1242 27.4861 21.8779 26.7679C23.6316 26.0496 25.1305 24.8333 26.1851 23.2728C27.2396 21.7122 27.8025 19.8775 27.8025 18.0006C27.7997 15.4847 26.7877 13.0726 24.9884 11.2935C23.1892 9.5145 20.7497 8.51383 18.2051 8.51109Z" fill="#3D4557"/>
<path d="M43.3086 35.9909C47.0042 35.9909 50 33.0287 50 29.3747C50 25.7206 47.0042 22.7584 43.3086 22.7584C39.613 22.7584 36.6171 25.7206 36.6171 29.3747C36.6171 33.0287 39.613 35.9909 43.3086 35.9909Z" fill="#7BCC4C"/>
</svg>
