<?xml version="1.0" encoding="utf-8"?>
<!-- Generator: Adobe Illustrator 21.1.0, SVG Export Plug-In . SVG Version: 6.00 Build 0)  -->
<svg version="1.1" id="Layer_1" xmlns="http://www.w3.org/2000/svg" xmlns:xlink="http://www.w3.org/1999/xlink" x="0px" y="0px"
	 viewBox="0 0 1366 542" style="enable-background:new 0 0 1366 542;" xml:space="preserve">
<style type="text/css">
	.st0{fill:#3D4557;}
	.st1{fill:#7BCC4C;}
</style>
<g>
	<path class="st0" d="M1018.5,314.2V210.5h48.9V315c0,9.8,3.4,17.4,10.2,22.8c6.8,5.4,15.1,8.1,24.7,8.1c9.3,0,17.4-2.7,24.2-8.1
		c6.8-5.4,10.2-13,10.2-22.8V210.5h48.9v104c0,9.8,3.4,17.4,10.2,22.9c6.8,5.5,14.9,8.3,24.2,8.3s17.5-2.8,24.4-8.3
		c7-5.5,10.5-13.2,10.5-22.9v-104h48.9v104c0,24.9-8.8,44-26.3,57.4c-17.5,13.4-38,20.1-61.2,20.1c-24.2,0-42.7-6.8-55.4-20.3
		c-6.8,4.4-15.1,8.9-24.9,13.4c-9.8,4.6-21.7,6.8-35.6,6.8c-17.7,0-35.8-5.9-54.3-17.7C1027.8,362.5,1018.5,342.5,1018.5,314.2z"/>
</g>
<path class="st0" d="M165.6,393.2c-51.6,0-93.6-42-93.6-93.6s42-93.6,93.6-93.6s93.6,42,93.6,93.6S217.2,393.2,165.6,393.2z
	 M165.6,250.2c-27.2,0-49.3,22.1-49.3,49.3c0,27.2,22.1,49.3,49.3,49.3c27.2,0,49.3-22.1,49.3-49.3
	C214.9,272.4,192.8,250.2,165.6,250.2z"/>
<path class="st0" d="M912.7,392.6c-51.6,0-93.6-42-93.6-93.6s42-93.6,93.6-93.6c51.6,0,93.6,42,93.6,93.6S964.3,392.6,912.7,392.6z
	 M912.7,249.7c-27.2,0-49.3,22.1-49.3,49.3c0,27.2,22.1,49.3,49.3,49.3c27.2,0,49.3-22.1,49.3-49.3
	C962,271.8,939.9,249.7,912.7,249.7z"/>
<ellipse transform="matrix(0.7071 -0.7071 0.7071 0.7071 -166.7321 314.232)" class="st1" cx="295.9" cy="358.4" rx="34.2" ry="34.2"/>
<g>
	<path class="st0" d="M757.3,113.3h48.9v279.4h-48.9V113.3z"/>
</g>
<path class="st0" d="M417.9,226.7c-16.9-14-37.1-21.1-60.7-21.1c-23.6,0-43.8,7-60.7,21.1c-16.9,14-25.3,33.6-25.3,58.8V320
	c6.8-5.2,15.3-8.3,24.6-8.3c9.7,0,18.6,3.4,25.6,9.1v-35.3c0-10,3.6-17.7,10.8-23.2c7.2-5.5,15.5-8.2,25.1-8.2
	c10.2,0,18.7,2.7,25.6,8.2c6.8,5.5,10.3,13.2,10.3,23.2V392h50.2V285.5C443.3,260.3,434.8,240.7,417.9,226.7z"/>
<path class="st0" d="M598.7,317.8c-7.5,19.7-26.5,33.8-48.9,33.8c-13,0-25-4.8-34.1-12.7l47.7-27.6l74.3-44.4
	c-13.2-35.7-47.6-61.2-87.9-61.2c-51.7,0-93.7,42-93.7,93.7s42,93.7,93.7,93.7c45.4,0,83.3-32.4,91.9-75.3H598.7z M497.6,299.4
	c0-28.8,23.4-52.2,52.2-52.2c12.4,0,23.8,4.3,32.7,11.6l-84.3,48.7C497.8,304.8,497.6,302.1,497.6,299.4z"/>
<g>
	<path class="st0" d="M631.7,229.3v-48.9c4,0,8-0.1,11.9-0.2c3.9-0.2,7.4-0.4,10.5-0.7c0-24.8,5.8-42.1,17.5-51.7
		c11.6-9.6,36.1-14.4,73.3-14.4v46.6c-18.6,0-30.3,1.7-34.9,5c-4.7,3.3-7,8-7,14.1c0,0.9,2.2,1.4,6.5,1.4c2.5,0,5.4,0,8.6,0
		c3.3,0,7.1,0,11.4,0v49.4l-26.5,0.9c0,29.6,0,61.3,0,95c0,33.8,0,56.1,0,67h-48.9v-163c0-0.2-1.4-0.3-4.2-0.3
		c-2.8-0.1-5.6-0.1-8.4-0.1H631.7z"/>
</g>
</svg>
